<mxfile host="app.diagrams.net" modified="2023-11-14T20:06:10.578Z" agent="Mozilla/5.0 (Windows NT 10.0; Win64; x64) AppleWebKit/537.36 (KHTML, like Gecko) Chrome/119.0.0.0 Safari/537.36 Edg/119.0.0.0" etag="btJ9a5__8aZaSj6viKY1" version="22.1.0" type="github">
  <diagram id="C5RBs43oDa-KdzZeNtuy" name="Page-1">
    <mxGraphModel dx="1356" dy="1996" grid="1" gridSize="10" guides="1" tooltips="1" connect="1" arrows="1" fold="1" page="1" pageScale="1" pageWidth="827" pageHeight="1169" math="0" shadow="0">
      <root>
        <mxCell id="WIyWlLk6GJQsqaUBKTNV-0" />
        <mxCell id="WIyWlLk6GJQsqaUBKTNV-1" parent="WIyWlLk6GJQsqaUBKTNV-0" />
        <mxCell id="nasBl9K5YajOh5_W6PYL-2" style="edgeStyle=orthogonalEdgeStyle;rounded=0;orthogonalLoop=1;jettySize=auto;html=1;exitX=0.5;exitY=1;exitDx=0;exitDy=0;strokeColor=#028090;fontColor=#E4FDE1;fillColor=#F45B69;" parent="WIyWlLk6GJQsqaUBKTNV-1" source="nasBl9K5YajOh5_W6PYL-0" target="nasBl9K5YajOh5_W6PYL-3" edge="1">
          <mxGeometry relative="1" as="geometry">
            <mxPoint x="220" y="150" as="targetPoint" />
          </mxGeometry>
        </mxCell>
        <mxCell id="nasBl9K5YajOh5_W6PYL-0" value="&lt;font color=&quot;#ffffff&quot;&gt;&quot;Enter a number.&quot;&lt;/font&gt;" style="shape=parallelogram;perimeter=parallelogramPerimeter;whiteSpace=wrap;html=1;fixedSize=1;fillColor=#007FFF;labelBackgroundColor=none;strokeColor=#028090;fontColor=#E4FDE1;" parent="WIyWlLk6GJQsqaUBKTNV-1" vertex="1">
          <mxGeometry x="160" y="40" width="120" height="60" as="geometry" />
        </mxCell>
        <mxCell id="nasBl9K5YajOh5_W6PYL-3" value="&amp;nbsp; X" style="shape=card;whiteSpace=wrap;html=1;strokeColor=#028090;fontColor=#E4FDE1;fillColor=#663300;" parent="WIyWlLk6GJQsqaUBKTNV-1" vertex="1">
          <mxGeometry x="196.88" y="160" width="46.25" height="50" as="geometry" />
        </mxCell>
        <mxCell id="nasBl9K5YajOh5_W6PYL-6" value="Yes" style="edgeStyle=orthogonalEdgeStyle;rounded=0;html=1;jettySize=auto;orthogonalLoop=1;fontSize=11;endArrow=block;endFill=0;endSize=8;strokeWidth=1;shadow=0;labelBackgroundColor=none;strokeColor=#028090;fontColor=default;exitX=1;exitY=0.5;exitDx=0;exitDy=0;entryX=0.5;entryY=1;entryDx=0;entryDy=0;" parent="WIyWlLk6GJQsqaUBKTNV-1" source="WIyWlLk6GJQsqaUBKTNV-10" target="Hs0-DUQ-DO4xvA26hf-c-10" edge="1">
          <mxGeometry x="-0.444" y="-10" relative="1" as="geometry">
            <mxPoint as="offset" />
            <mxPoint x="450" y="184.97" as="sourcePoint" />
            <mxPoint x="670" y="350" as="targetPoint" />
            <Array as="points" />
          </mxGeometry>
        </mxCell>
        <mxCell id="nasBl9K5YajOh5_W6PYL-9" value="No" style="edgeStyle=orthogonalEdgeStyle;rounded=0;html=1;jettySize=auto;orthogonalLoop=1;fontSize=11;endArrow=block;endFill=0;endSize=8;strokeWidth=1;shadow=0;labelBackgroundColor=none;strokeColor=#028090;fontColor=default;exitX=0.5;exitY=1;exitDx=0;exitDy=0;entryX=0.5;entryY=0;entryDx=0;entryDy=0;" parent="WIyWlLk6GJQsqaUBKTNV-1" source="WIyWlLk6GJQsqaUBKTNV-10" target="Hs0-DUQ-DO4xvA26hf-c-3" edge="1">
          <mxGeometry y="10" relative="1" as="geometry">
            <mxPoint as="offset" />
            <mxPoint x="290" y="240" as="sourcePoint" />
            <mxPoint x="300" y="590" as="targetPoint" />
            <Array as="points" />
          </mxGeometry>
        </mxCell>
        <mxCell id="nasBl9K5YajOh5_W6PYL-11" style="edgeStyle=orthogonalEdgeStyle;rounded=0;orthogonalLoop=1;jettySize=auto;html=1;exitX=1;exitY=0.5;exitDx=0;exitDy=0;strokeColor=#028090;fontColor=#E4FDE1;fillColor=#F45B69;entryX=0;entryY=0.5;entryDx=0;entryDy=0;exitPerimeter=0;" parent="WIyWlLk6GJQsqaUBKTNV-1" source="nasBl9K5YajOh5_W6PYL-3" target="nasBl9K5YajOh5_W6PYL-21" edge="1">
          <mxGeometry relative="1" as="geometry">
            <mxPoint x="399.79310344827593" y="360" as="targetPoint" />
          </mxGeometry>
        </mxCell>
        <mxCell id="q-HBgLkSYVC8toxqw4t0-9" style="edgeStyle=orthogonalEdgeStyle;shape=connector;rounded=0;orthogonalLoop=1;jettySize=auto;html=1;exitX=0.5;exitY=1;exitDx=0;exitDy=0;entryX=0.5;entryY=0;entryDx=0;entryDy=0;labelBackgroundColor=default;strokeColor=#028090;align=center;verticalAlign=middle;fontFamily=Helvetica;fontSize=11;fontColor=#E4FDE1;endArrow=classic;fillColor=#F45B69;" edge="1" parent="WIyWlLk6GJQsqaUBKTNV-1" source="nasBl9K5YajOh5_W6PYL-10" target="nasBl9K5YajOh5_W6PYL-12">
          <mxGeometry relative="1" as="geometry" />
        </mxCell>
        <mxCell id="nasBl9K5YajOh5_W6PYL-10" value="f=f+2" style="rounded=0;whiteSpace=wrap;html=1;strokeColor=#028090;fontColor=#E4FDE1;fillColor=#F45B69;" parent="WIyWlLk6GJQsqaUBKTNV-1" vertex="1">
          <mxGeometry x="700" y="720" width="70" height="40" as="geometry" />
        </mxCell>
        <mxCell id="nasBl9K5YajOh5_W6PYL-12" value="f&amp;lt;x" style="rhombus;whiteSpace=wrap;html=1;strokeColor=#028090;fontColor=#E4FDE1;fillColor=#FC68A8;" parent="WIyWlLk6GJQsqaUBKTNV-1" vertex="1">
          <mxGeometry x="685" y="810" width="100" height="90" as="geometry" />
        </mxCell>
        <mxCell id="nasBl9K5YajOh5_W6PYL-13" value="Yes" style="edgeStyle=orthogonalEdgeStyle;rounded=0;html=1;jettySize=auto;orthogonalLoop=1;fontSize=11;endArrow=block;endFill=0;endSize=8;strokeWidth=1;shadow=0;labelBackgroundColor=none;strokeColor=#028090;fontColor=default;exitX=1;exitY=0.5;exitDx=0;exitDy=0;" parent="WIyWlLk6GJQsqaUBKTNV-1" source="nasBl9K5YajOh5_W6PYL-12" target="pEb8AcUWJKP8pIJCzRxQ-10" edge="1">
          <mxGeometry x="0.1689" y="-23" relative="1" as="geometry">
            <mxPoint y="1" as="offset" />
            <mxPoint x="490" y="390" as="sourcePoint" />
            <mxPoint x="630" y="190" as="targetPoint" />
            <Array as="points" />
          </mxGeometry>
        </mxCell>
        <mxCell id="q-HBgLkSYVC8toxqw4t0-6" style="edgeStyle=orthogonalEdgeStyle;shape=connector;rounded=0;orthogonalLoop=1;jettySize=auto;html=1;exitX=1;exitY=0.5;exitDx=0;exitDy=0;entryX=0;entryY=0.5;entryDx=0;entryDy=0;labelBackgroundColor=default;strokeColor=#028090;align=center;verticalAlign=middle;fontFamily=Helvetica;fontSize=11;fontColor=#E4FDE1;endArrow=classic;fillColor=#F45B69;" edge="1" parent="WIyWlLk6GJQsqaUBKTNV-1" source="nasBl9K5YajOh5_W6PYL-14" target="nasBl9K5YajOh5_W6PYL-19">
          <mxGeometry relative="1" as="geometry" />
        </mxCell>
        <mxCell id="nasBl9K5YajOh5_W6PYL-14" value="b=x^t" style="rounded=0;whiteSpace=wrap;html=1;strokeColor=#028090;fontColor=#E4FDE1;fillColor=#F45B69;" parent="WIyWlLk6GJQsqaUBKTNV-1" vertex="1">
          <mxGeometry x="379" y="553.75" width="70" height="35" as="geometry" />
        </mxCell>
        <mxCell id="nasBl9K5YajOh5_W6PYL-15" value="No" style="edgeStyle=orthogonalEdgeStyle;rounded=0;html=1;jettySize=auto;orthogonalLoop=1;fontSize=11;endArrow=block;endFill=0;endSize=8;strokeWidth=1;shadow=0;labelBackgroundColor=none;strokeColor=#028090;fontColor=default;exitX=0;exitY=0.5;exitDx=0;exitDy=0;entryX=1;entryY=0.5;entryDx=0;entryDy=0;" parent="WIyWlLk6GJQsqaUBKTNV-1" source="nasBl9K5YajOh5_W6PYL-12" target="nasBl9K5YajOh5_W6PYL-29" edge="1">
          <mxGeometry y="10" relative="1" as="geometry">
            <mxPoint as="offset" />
            <mxPoint x="700" y="410" as="sourcePoint" />
            <mxPoint x="710" y="460" as="targetPoint" />
            <Array as="points" />
          </mxGeometry>
        </mxCell>
        <mxCell id="q-HBgLkSYVC8toxqw4t0-8" style="edgeStyle=orthogonalEdgeStyle;shape=connector;rounded=0;orthogonalLoop=1;jettySize=auto;html=1;exitX=0.5;exitY=1;exitDx=0;exitDy=0;entryX=0.5;entryY=0;entryDx=0;entryDy=0;labelBackgroundColor=default;strokeColor=#028090;align=center;verticalAlign=middle;fontFamily=Helvetica;fontSize=11;fontColor=#E4FDE1;endArrow=classic;fillColor=#F45B69;" edge="1" parent="WIyWlLk6GJQsqaUBKTNV-1" source="nasBl9K5YajOh5_W6PYL-16" target="nasBl9K5YajOh5_W6PYL-10">
          <mxGeometry relative="1" as="geometry" />
        </mxCell>
        <mxCell id="nasBl9K5YajOh5_W6PYL-16" value="a+=b" style="rounded=0;whiteSpace=wrap;html=1;strokeColor=#028090;fontColor=#E4FDE1;fillColor=#F45B69;" parent="WIyWlLk6GJQsqaUBKTNV-1" vertex="1">
          <mxGeometry x="700" y="551.88" width="70" height="38.75" as="geometry" />
        </mxCell>
        <mxCell id="nasBl9K5YajOh5_W6PYL-19" value="f%4==0" style="rhombus;whiteSpace=wrap;html=1;strokeColor=#028090;fontColor=#E4FDE1;fillColor=#FC68A8;" parent="WIyWlLk6GJQsqaUBKTNV-1" vertex="1">
          <mxGeometry x="510" y="528.75" width="100" height="85" as="geometry" />
        </mxCell>
        <mxCell id="nasBl9K5YajOh5_W6PYL-21" value="x&amp;lt;1" style="rhombus;whiteSpace=wrap;html=1;strokeColor=#028090;fontColor=#E4FDE1;fillColor=#FC68A8;" parent="WIyWlLk6GJQsqaUBKTNV-1" vertex="1">
          <mxGeometry x="333.75" y="140" width="100" height="90" as="geometry" />
        </mxCell>
        <mxCell id="q-HBgLkSYVC8toxqw4t0-15" style="edgeStyle=orthogonalEdgeStyle;shape=connector;rounded=0;orthogonalLoop=1;jettySize=auto;html=1;exitX=0;exitY=0.5;exitDx=0;exitDy=0;entryX=1;entryY=0.5;entryDx=0;entryDy=0;labelBackgroundColor=default;strokeColor=#028090;align=center;verticalAlign=middle;fontFamily=Helvetica;fontSize=11;fontColor=#E4FDE1;endArrow=classic;fillColor=#F45B69;" edge="1" parent="WIyWlLk6GJQsqaUBKTNV-1" source="nasBl9K5YajOh5_W6PYL-29" target="nasBl9K5YajOh5_W6PYL-31">
          <mxGeometry relative="1" as="geometry" />
        </mxCell>
        <mxCell id="nasBl9K5YajOh5_W6PYL-29" value="a" style="shape=document;whiteSpace=wrap;html=1;boundedLbl=1;strokeColor=#028090;fontColor=#E4FDE1;fillColor=#B266FF;" parent="WIyWlLk6GJQsqaUBKTNV-1" vertex="1">
          <mxGeometry x="520" y="829.38" width="55" height="51.25" as="geometry" />
        </mxCell>
        <mxCell id="nasBl9K5YajOh5_W6PYL-31" value="END" style="ellipse;whiteSpace=wrap;html=1;strokeColor=#028090;fontColor=#E4FDE1;fillColor=#0000CC;" parent="WIyWlLk6GJQsqaUBKTNV-1" vertex="1">
          <mxGeometry x="323.5" y="827.5" width="90" height="55" as="geometry" />
        </mxCell>
        <mxCell id="nasBl9K5YajOh5_W6PYL-34" style="edgeStyle=orthogonalEdgeStyle;rounded=0;orthogonalLoop=1;jettySize=auto;html=1;exitX=0.5;exitY=1;exitDx=0;exitDy=0;entryX=0.5;entryY=0;entryDx=0;entryDy=0;strokeColor=#028090;fontColor=#E4FDE1;fillColor=#F45B69;" parent="WIyWlLk6GJQsqaUBKTNV-1" source="nasBl9K5YajOh5_W6PYL-33" target="nasBl9K5YajOh5_W6PYL-0" edge="1">
          <mxGeometry relative="1" as="geometry" />
        </mxCell>
        <mxCell id="nasBl9K5YajOh5_W6PYL-33" value="START" style="ellipse;whiteSpace=wrap;html=1;strokeColor=#028090;fontColor=#E4FDE1;fillColor=#0000CC;" parent="WIyWlLk6GJQsqaUBKTNV-1" vertex="1">
          <mxGeometry x="175" y="-70" width="90" height="55" as="geometry" />
        </mxCell>
        <mxCell id="WIyWlLk6GJQsqaUBKTNV-10" value="n&amp;gt;1" style="rhombus;whiteSpace=wrap;html=1;shadow=0;fontFamily=Helvetica;fontSize=12;align=center;strokeWidth=1;spacing=6;spacingTop=-4;labelBackgroundColor=none;fillColor=#FC68A8;strokeColor=#028090;fontColor=#E4FDE1;" parent="WIyWlLk6GJQsqaUBKTNV-1" vertex="1">
          <mxGeometry x="210" y="401.25" width="100" height="80" as="geometry" />
        </mxCell>
        <mxCell id="wX3lc35L_wtewaEbMBnM-2" style="edgeStyle=orthogonalEdgeStyle;shape=connector;rounded=0;orthogonalLoop=1;jettySize=auto;html=1;exitX=0.5;exitY=1;exitDx=0;exitDy=0;labelBackgroundColor=default;strokeColor=#028090;align=center;verticalAlign=middle;fontFamily=Helvetica;fontSize=11;fontColor=#E4FDE1;endArrow=classic;fillColor=#F45B69;entryX=0.5;entryY=0;entryDx=0;entryDy=0;" parent="WIyWlLk6GJQsqaUBKTNV-1" source="wX3lc35L_wtewaEbMBnM-1" target="pEb8AcUWJKP8pIJCzRxQ-2" edge="1">
          <mxGeometry relative="1" as="geometry">
            <mxPoint x="313.79999999999995" y="298" as="targetPoint" />
          </mxGeometry>
        </mxCell>
        <mxCell id="Hs0-DUQ-DO4xvA26hf-c-9" style="edgeStyle=orthogonalEdgeStyle;shape=connector;rounded=0;orthogonalLoop=1;jettySize=auto;html=1;exitX=0;exitY=0.5;exitDx=0;exitDy=0;labelBackgroundColor=default;strokeColor=#028090;align=center;verticalAlign=middle;fontFamily=Helvetica;fontSize=11;fontColor=#E4FDE1;endArrow=classic;fillColor=#F45B69;" parent="WIyWlLk6GJQsqaUBKTNV-1" source="wX3lc35L_wtewaEbMBnM-4" target="Hs0-DUQ-DO4xvA26hf-c-10" edge="1">
          <mxGeometry relative="1" as="geometry">
            <mxPoint x="180" y="798.3157894736842" as="targetPoint" />
          </mxGeometry>
        </mxCell>
        <mxCell id="wX3lc35L_wtewaEbMBnM-4" value="t=0&lt;br&gt;a=1&lt;br&gt;n=2&lt;br&gt;p=n" style="rounded=0;whiteSpace=wrap;html=1;strokeColor=#028090;align=center;verticalAlign=middle;fontFamily=Helvetica;fontSize=12;fontColor=#E4FDE1;fillColor=#F45B69;" parent="WIyWlLk6GJQsqaUBKTNV-1" vertex="1">
          <mxGeometry x="336.09999999999997" y="306.66" width="95.31" height="60" as="geometry" />
        </mxCell>
        <mxCell id="q-HBgLkSYVC8toxqw4t0-5" style="edgeStyle=orthogonalEdgeStyle;shape=connector;rounded=0;orthogonalLoop=1;jettySize=auto;html=1;exitX=1;exitY=0.5;exitDx=0;exitDy=0;entryX=0;entryY=0.5;entryDx=0;entryDy=0;labelBackgroundColor=default;strokeColor=#028090;align=center;verticalAlign=middle;fontFamily=Helvetica;fontSize=11;fontColor=#E4FDE1;endArrow=classic;fillColor=#F45B69;" edge="1" parent="WIyWlLk6GJQsqaUBKTNV-1" source="Hs0-DUQ-DO4xvA26hf-c-3" target="nasBl9K5YajOh5_W6PYL-14">
          <mxGeometry relative="1" as="geometry" />
        </mxCell>
        <mxCell id="Hs0-DUQ-DO4xvA26hf-c-3" value="t+=(f/s)" style="rounded=0;whiteSpace=wrap;html=1;strokeColor=#028090;align=center;verticalAlign=middle;fontFamily=Helvetica;fontSize=11;fontColor=#E4FDE1;fillColor=#F45B69;" parent="WIyWlLk6GJQsqaUBKTNV-1" vertex="1">
          <mxGeometry x="225.75" y="552.5" width="68.5" height="37.5" as="geometry" />
        </mxCell>
        <mxCell id="Hs0-DUQ-DO4xvA26hf-c-5" value="Yes" style="edgeStyle=orthogonalEdgeStyle;rounded=0;html=1;jettySize=auto;orthogonalLoop=1;fontSize=11;endArrow=block;endFill=0;endSize=8;strokeWidth=1;shadow=0;labelBackgroundColor=none;strokeColor=#028090;fontColor=default;exitX=1;exitY=0.5;exitDx=0;exitDy=0;" parent="WIyWlLk6GJQsqaUBKTNV-1" source="nasBl9K5YajOh5_W6PYL-21" target="q-HBgLkSYVC8toxqw4t0-1" edge="1">
          <mxGeometry x="-0.039" y="-15" relative="1" as="geometry">
            <mxPoint as="offset" />
            <mxPoint x="740" y="650" as="sourcePoint" />
            <mxPoint x="610" y="185" as="targetPoint" />
            <Array as="points" />
          </mxGeometry>
        </mxCell>
        <mxCell id="Hs0-DUQ-DO4xvA26hf-c-7" value="No" style="edgeStyle=orthogonalEdgeStyle;rounded=0;html=1;jettySize=auto;orthogonalLoop=1;fontSize=11;endArrow=block;endFill=0;endSize=8;strokeWidth=1;shadow=0;labelBackgroundColor=none;strokeColor=#028090;fontColor=default;exitX=0.5;exitY=1;exitDx=0;exitDy=0;entryX=0.5;entryY=0;entryDx=0;entryDy=0;" parent="WIyWlLk6GJQsqaUBKTNV-1" source="nasBl9K5YajOh5_W6PYL-21" target="wX3lc35L_wtewaEbMBnM-4" edge="1">
          <mxGeometry y="10" relative="1" as="geometry">
            <mxPoint as="offset" />
            <mxPoint x="433.75" y="459.9999999999998" as="sourcePoint" />
            <mxPoint x="436.0434782608695" y="545.0000000000002" as="targetPoint" />
            <Array as="points">
              <mxPoint x="384" y="280" />
              <mxPoint x="384" y="280" />
            </Array>
          </mxGeometry>
        </mxCell>
        <mxCell id="q-HBgLkSYVC8toxqw4t0-4" style="edgeStyle=orthogonalEdgeStyle;shape=connector;rounded=0;orthogonalLoop=1;jettySize=auto;html=1;exitX=0;exitY=0.5;exitDx=0;exitDy=0;labelBackgroundColor=default;strokeColor=#028090;align=center;verticalAlign=middle;fontFamily=Helvetica;fontSize=11;fontColor=#E4FDE1;endArrow=classic;fillColor=#F45B69;entryX=1;entryY=0.5;entryDx=0;entryDy=0;" edge="1" parent="WIyWlLk6GJQsqaUBKTNV-1" source="Hs0-DUQ-DO4xvA26hf-c-10" target="wX3lc35L_wtewaEbMBnM-1">
          <mxGeometry relative="1" as="geometry">
            <mxPoint x="150" y="329.78260869565224" as="targetPoint" />
          </mxGeometry>
        </mxCell>
        <mxCell id="Hs0-DUQ-DO4xvA26hf-c-10" value="s=1" style="rounded=0;whiteSpace=wrap;html=1;strokeColor=#028090;align=center;verticalAlign=middle;fontFamily=Helvetica;fontSize=11;fontColor=#E4FDE1;fillColor=#F45B69;" parent="WIyWlLk6GJQsqaUBKTNV-1" vertex="1">
          <mxGeometry x="190" y="320.82000000000005" width="70" height="31.68" as="geometry" />
        </mxCell>
        <mxCell id="Hs0-DUQ-DO4xvA26hf-c-12" value="Yes" style="edgeStyle=orthogonalEdgeStyle;rounded=0;html=1;jettySize=auto;orthogonalLoop=1;fontSize=11;endArrow=block;endFill=0;endSize=8;strokeWidth=1;shadow=0;labelBackgroundColor=none;strokeColor=#028090;fontColor=default;exitX=1;exitY=0.5;exitDx=0;exitDy=0;entryX=0;entryY=0.5;entryDx=0;entryDy=0;" parent="WIyWlLk6GJQsqaUBKTNV-1" source="nasBl9K5YajOh5_W6PYL-19" target="nasBl9K5YajOh5_W6PYL-16" edge="1">
          <mxGeometry x="-0.0115" y="-10" relative="1" as="geometry">
            <mxPoint as="offset" />
            <mxPoint x="480" y="980" as="sourcePoint" />
            <mxPoint x="468" y="610" as="targetPoint" />
            <Array as="points" />
          </mxGeometry>
        </mxCell>
        <mxCell id="Hs0-DUQ-DO4xvA26hf-c-14" value="No" style="edgeStyle=orthogonalEdgeStyle;rounded=0;html=1;jettySize=auto;orthogonalLoop=1;fontSize=11;endArrow=block;endFill=0;endSize=8;strokeWidth=1;shadow=0;labelBackgroundColor=none;strokeColor=#028090;fontColor=default;exitX=0.5;exitY=1;exitDx=0;exitDy=0;" parent="WIyWlLk6GJQsqaUBKTNV-1" source="nasBl9K5YajOh5_W6PYL-19" target="pEb8AcUWJKP8pIJCzRxQ-8" edge="1">
          <mxGeometry y="10" relative="1" as="geometry">
            <mxPoint as="offset" />
            <mxPoint x="380" y="1050" as="sourcePoint" />
            <mxPoint x="520" y="1000" as="targetPoint" />
            <Array as="points" />
          </mxGeometry>
        </mxCell>
        <mxCell id="wX3lc35L_wtewaEbMBnM-1" value="&lt;font color=&quot;#ffffff&quot;&gt;s*=n&lt;/font&gt;" style="rounded=0;whiteSpace=wrap;html=1;fillColor=#F45B69;strokeColor=#028090;" parent="WIyWlLk6GJQsqaUBKTNV-1" vertex="1">
          <mxGeometry x="62.5" y="320.82" width="67.5" height="35" as="geometry" />
        </mxCell>
        <mxCell id="pEb8AcUWJKP8pIJCzRxQ-4" style="edgeStyle=orthogonalEdgeStyle;shape=connector;rounded=0;orthogonalLoop=1;jettySize=auto;html=1;exitX=1;exitY=0.5;exitDx=0;exitDy=0;entryX=0;entryY=0.5;entryDx=0;entryDy=0;labelBackgroundColor=default;strokeColor=#028090;align=center;verticalAlign=middle;fontFamily=Helvetica;fontSize=11;fontColor=#E4FDE1;endArrow=classic;fillColor=#F45B69;" parent="WIyWlLk6GJQsqaUBKTNV-1" source="pEb8AcUWJKP8pIJCzRxQ-2" target="WIyWlLk6GJQsqaUBKTNV-10" edge="1">
          <mxGeometry relative="1" as="geometry" />
        </mxCell>
        <mxCell id="pEb8AcUWJKP8pIJCzRxQ-2" value="&lt;font color=&quot;#ffffff&quot;&gt;n--&lt;/font&gt;" style="rounded=0;whiteSpace=wrap;html=1;strokeColor=#028090;align=center;verticalAlign=middle;fontFamily=Helvetica;fontSize=12;fontColor=default;fillColor=#F45B69;" parent="WIyWlLk6GJQsqaUBKTNV-1" vertex="1">
          <mxGeometry x="61.25" y="426.25" width="70" height="30" as="geometry" />
        </mxCell>
        <mxCell id="pEb8AcUWJKP8pIJCzRxQ-5" value="1" style="ellipse;whiteSpace=wrap;html=1;aspect=fixed;rounded=0;strokeColor=#028090;align=center;verticalAlign=middle;fontFamily=Helvetica;fontSize=11;fontColor=#E4FDE1;fillColor=#006600;" parent="WIyWlLk6GJQsqaUBKTNV-1" vertex="1">
          <mxGeometry x="660" y="320.82" width="35" height="35" as="geometry" />
        </mxCell>
        <mxCell id="q-HBgLkSYVC8toxqw4t0-13" style="edgeStyle=orthogonalEdgeStyle;shape=connector;rounded=0;orthogonalLoop=1;jettySize=auto;html=1;exitX=0.5;exitY=1;exitDx=0;exitDy=0;entryX=0.5;entryY=0;entryDx=0;entryDy=0;labelBackgroundColor=default;strokeColor=#028090;align=center;verticalAlign=middle;fontFamily=Helvetica;fontSize=11;fontColor=#E4FDE1;endArrow=classic;fillColor=#F45B69;" edge="1" parent="WIyWlLk6GJQsqaUBKTNV-1" source="pEb8AcUWJKP8pIJCzRxQ-6" target="Hs0-DUQ-DO4xvA26hf-c-10">
          <mxGeometry relative="1" as="geometry" />
        </mxCell>
        <mxCell id="pEb8AcUWJKP8pIJCzRxQ-6" value="1" style="ellipse;whiteSpace=wrap;html=1;aspect=fixed;rounded=0;strokeColor=#028090;align=center;verticalAlign=middle;fontFamily=Helvetica;fontSize=11;fontColor=#E4FDE1;fillColor=#006600;" parent="WIyWlLk6GJQsqaUBKTNV-1" vertex="1">
          <mxGeometry x="207.5" y="240" width="35" height="35" as="geometry" />
        </mxCell>
        <mxCell id="pEb8AcUWJKP8pIJCzRxQ-9" style="edgeStyle=orthogonalEdgeStyle;shape=connector;rounded=0;orthogonalLoop=1;jettySize=auto;html=1;exitX=1;exitY=0.5;exitDx=0;exitDy=0;labelBackgroundColor=default;strokeColor=#028090;align=center;verticalAlign=middle;fontFamily=Helvetica;fontSize=11;fontColor=#E4FDE1;endArrow=classic;fillColor=#F45B69;entryX=0;entryY=0.5;entryDx=0;entryDy=0;" parent="WIyWlLk6GJQsqaUBKTNV-1" source="pEb8AcUWJKP8pIJCzRxQ-8" target="nasBl9K5YajOh5_W6PYL-10" edge="1">
          <mxGeometry relative="1" as="geometry">
            <mxPoint x="620" y="790" as="targetPoint" />
          </mxGeometry>
        </mxCell>
        <mxCell id="pEb8AcUWJKP8pIJCzRxQ-8" value="a-=b" style="rounded=0;whiteSpace=wrap;html=1;strokeColor=#028090;align=center;verticalAlign=middle;fontFamily=Helvetica;fontSize=11;fontColor=#E4FDE1;fillColor=#F45B69;" parent="WIyWlLk6GJQsqaUBKTNV-1" vertex="1">
          <mxGeometry x="523.75" y="720" width="72.5" height="40" as="geometry" />
        </mxCell>
        <mxCell id="q-HBgLkSYVC8toxqw4t0-10" style="edgeStyle=orthogonalEdgeStyle;shape=connector;rounded=0;orthogonalLoop=1;jettySize=auto;html=1;exitX=0;exitY=0.5;exitDx=0;exitDy=0;entryX=1;entryY=0.5;entryDx=0;entryDy=0;labelBackgroundColor=default;strokeColor=#028090;align=center;verticalAlign=middle;fontFamily=Helvetica;fontSize=11;fontColor=#E4FDE1;endArrow=classic;fillColor=#F45B69;" edge="1" parent="WIyWlLk6GJQsqaUBKTNV-1" source="pEb8AcUWJKP8pIJCzRxQ-10" target="pEb8AcUWJKP8pIJCzRxQ-5">
          <mxGeometry relative="1" as="geometry" />
        </mxCell>
        <mxCell id="pEb8AcUWJKP8pIJCzRxQ-10" value="n=f" style="rounded=0;whiteSpace=wrap;html=1;strokeColor=#028090;align=center;verticalAlign=middle;fontFamily=Helvetica;fontSize=11;fontColor=#E4FDE1;fillColor=#F45B69;" parent="WIyWlLk6GJQsqaUBKTNV-1" vertex="1">
          <mxGeometry x="770" y="315.82" width="70" height="45" as="geometry" />
        </mxCell>
        <mxCell id="q-HBgLkSYVC8toxqw4t0-1" value="&quot;Enter number greater than 1.&quot;" style="shape=parallelogram;perimeter=parallelogramPerimeter;whiteSpace=wrap;html=1;fixedSize=1;labelBackgroundColor=none;strokeColor=#028090;align=center;verticalAlign=middle;fontFamily=Helvetica;fontSize=12;fontColor=#E4FDE1;fillColor=#007FFF;" vertex="1" parent="WIyWlLk6GJQsqaUBKTNV-1">
          <mxGeometry x="520" y="155" width="120" height="60" as="geometry" />
        </mxCell>
        <mxCell id="q-HBgLkSYVC8toxqw4t0-3" style="edgeStyle=orthogonalEdgeStyle;shape=connector;rounded=0;orthogonalLoop=1;jettySize=auto;html=1;exitX=0.5;exitY=0;exitDx=0;exitDy=0;entryX=1;entryY=0;entryDx=0;entryDy=0;entryPerimeter=0;labelBackgroundColor=default;strokeColor=#028090;align=center;verticalAlign=middle;fontFamily=Helvetica;fontSize=11;fontColor=#E4FDE1;endArrow=classic;fillColor=#F45B69;" edge="1" parent="WIyWlLk6GJQsqaUBKTNV-1" source="q-HBgLkSYVC8toxqw4t0-1" target="nasBl9K5YajOh5_W6PYL-3">
          <mxGeometry relative="1" as="geometry" />
        </mxCell>
      </root>
    </mxGraphModel>
  </diagram>
</mxfile>
